<?xml version="1.0" standalone="no"?>
<!DOCTYPE svg PUBLIC "-//W3C//DTD SVG 20010904//EN"
 "http://www.w3.org/TR/2001/REC-SVG-20010904/DTD/svg10.dtd">
<svg version="1.0" xmlns="http://www.w3.org/2000/svg"
 width="1200.000000pt" height="1200.000000pt" viewBox="0 0 1200.000000 1200.000000"
 preserveAspectRatio="xMidYMid meet">
<metadata>
Created by potrace 1.11, written by Peter Selinger 2001-2013
</metadata>
<g transform="translate(0.000000,1200.000000) scale(0.100000,-0.100000)"
fill="#000000" stroke="none">
<path d="M5775 11988 c-1803 -56 -3504 -954 -4597 -2428 -556 -750 -931 -1630
-1087 -2550 -94 -553 -109 -1141 -45 -1705 194 -1722 1157 -3301 2607 -4278
791 -533 1715 -875 2648 -981 454 -51 944 -51 1398 0 1729 196 3314 1168 4290
2631 414 622 702 1297 866 2032 140 628 174 1314 99 1986 -102 922 -439 1839
-965 2628 -610 914 -1483 1663 -2469 2117 -873 402 -1759 579 -2745 548z m602
-2049 c1397 -116 2617 -937 3249 -2184 371 -733 507 -1551 393 -2364 -152
-1087 -745 -2063 -1644 -2706 -874 -625 -1969 -870 -3035 -679 -1003 180
-1903 741 -2515 1569 -431 584 -690 1268 -761 2015 -20 204 -14 639 10 830 88
675 319 1281 693 1818 249 358 637 746 995 995 454 317 975 537 1528 647 104
20 368 56 465 63 122 8 505 6 622 -4z"/>
<path d="M5838 7999 c-776 -63 -1449 -575 -1721 -1309 -136 -368 -158 -797
-61 -1185 160 -633 635 -1159 1254 -1388 368 -136 797 -158 1185 -61 558 141
1042 532 1299 1051 145 291 208 563 208 893 0 329 -63 602 -207 892 -293 590
-858 999 -1510 1092 -136 20 -318 26 -447 15z"/>
</g>
</svg>
